<svg xmlns="http://www.w3.org/2000/svg" xmlns:xlink="http://www.w3.org/1999/xlink" width="10" height="13" viewBox="0 0 10 13"><defs><path id="25zya" d="M1185.22 1492H1180v-12.57h5.69c1.65 0 3.17 1.05 3.17 2.9 0 1.43-.8 2.41-1.82 2.72v.03c1.51.32 2.6 1.14 2.6 3.11 0 1.83-1.25 3.82-4.43 3.82zm.1-7.87c.34-.26.52-.72.52-1.14 0-.46-.21-.9-.6-1.14-.41-.24-1.16-.18-1.64-.18h-.66v2.75h.88c.5 0 1.08.04 1.5-.3zm.58 2.66c-.4-.23-.98-.23-1.44-.23h-1.52v3.12h1.4c.51 0 1.17.04 1.61-.27a1.62 1.62 0 0 0-.05-2.62z"/></defs><g><g transform="translate(-1180 -1479)"><use fill="#fff" xlink:href="#25zya"/></g></g></svg>