<svg xmlns="http://www.w3.org/2000/svg" xmlns:xlink="http://www.w3.org/1999/xlink" width="11" height="18" viewBox="0 0 11 18"><defs><path id="v3iga" d="M1221.86 1489.49l-2.95 2.96c-.2.2-.35.43-.37.72-.02.44.25.88.68 1.09.4.2.82.13 1.16-.21.78-.76 1.55-1.53 2.3-2.3.19-.2.3-.25.5-.02.74.77 1.5 1.51 2.26 2.27.2.2.42.34.7.36.45.03.9-.26 1.1-.7a.99.99 0 0 0-.21-1.16l-3-3-.23-.25a8.94 8.94 0 0 0 2.15-.48 5.28 5.28 0 0 0 1.9-1.22c.35-.36.35-.81.07-1.27a1 1 0 0 0-1.14-.46c-.24.06-.44.18-.64.33a5.88 5.88 0 0 1-6.51-.06l-.3-.18c-.53-.25-1.05-.13-1.35.3-.36.52-.32 1.02.14 1.45.11.12.25.21.37.31a6.73 6.73 0 0 0 3.59 1.28l-.22.24zm1.08-5.9a2.13 2.13 0 0 1-2.15-2.12c-.01-1.2.94-2.16 2.14-2.16 1.19 0 2.14.95 2.14 2.14 0 1.19-.94 2.14-2.13 2.14zm4.36-2.08a4.38 4.38 0 1 0-8.76-.11 4.38 4.38 0 0 0 8.76.1z"/></defs><g><g transform="translate(-1217 -1477)"><use fill="#fff" xlink:href="#v3iga"/></g></g></svg>