<?xml version="1.0" encoding="UTF-8"?><!DOCTYPE svg PUBLIC "-//W3C//DTD SVG 1.1//EN" "http://www.w3.org/Graphics/SVG/1.1/DTD/svg11.dtd"><svg xmlns="http://www.w3.org/2000/svg" xmlns:xlink="http://www.w3.org/1999/xlink"><defs>
        <path id="a" d="M236.26 52.84l8.18-16.4H246l-8.27 16.42L246 69.27h-1.57zm-3.16 0l8.2-16.4h1.56l-8.28 16.42 8.28 16.41h-1.57zm-3.15 0l8.2-16.4h1.57l-8.3 16.42 8.3 16.41h-1.57zm-3.17 0l8.22-16.4h1.56l-8.3 16.4 8.3 16.43H235zm-.83 16.43h-1.42V36.44h1.42zm-2.84 0h-1.42V36.44h1.42zm-2.84 0h-1.43V36.44h1.43zm-2.85 0H216V36.44h1.42z"/>
        <path id="b" d="M316.95 47.66a9.05 9.05 0 0 0-7.6-4.02 8.79 8.79 0 0 0-6.48 2.65 9.26 9.26 0 0 0-1.92 2.84 9.27 9.27 0 0 0 0 7.2 9.14 9.14 0 0 0 16 1.71l-1.17-.8a7.7 7.7 0 0 1-11.9 1.16 7.58 7.58 0 0 1-2.27-5.56c-.04-2.09.79-4.1 2.27-5.54a7.39 7.39 0 0 1 5.49-2.3 7.67 7.67 0 0 1 6.41 3.42zm2.36-1.59a11.86 11.86 0 0 0-9.95-5.31 11.5 11.5 0 0 0-6 1.58 12.14 12.14 0 0 0-5.98 10.5c-.02 2.14.54 4.25 1.61 6.1a11.93 11.93 0 0 0 20.33.73l-1.15-.8a10.67 10.67 0 0 1-3.75 3.42 10.46 10.46 0 0 1-10.48-.2 10.74 10.74 0 0 1-5.16-9.25 10.5 10.5 0 0 1 1.42-5.37 10.5 10.5 0 0 1 17.89-.68l1.16-.76zm-2.97-6.4a14.08 14.08 0 0 0-6.98-1.79 14.3 14.3 0 0 0-7.41 1.99c-2.24 1.3-4.1 3.19-5.4 5.45a14.907 14.907 0 0 0-2 7.52c-.01 2.64.67 5.24 2 7.52a14.8 14.8 0 0 0 5.4 5.47 14.65 14.65 0 0 0 19.63-4.5l-1.13-.87a13.37 13.37 0 0 1-20.56 1.97 13.75 13.75 0 0 1 0-19.2 13.33 13.33 0 0 1 20.54 1.98l1.18-.78a14.9 14.9 0 0 0-5.27-4.76zm7.58 3.15a17.77 17.77 0 0 0-6.26-5.7 17.4 17.4 0 0 0-15.16-.7 17.79 17.79 0 0 0-5.68 3.82 17.77 17.77 0 0 0-3.76 5.69 17.77 17.77 0 0 0 0 13.87 17.77 17.77 0 0 0 3.76 5.68 17.79 17.79 0 0 0 5.68 3.82 17.19 17.19 0 0 0 15.13-.65A17.8 17.8 0 0 0 323.9 63l-1.14-.87c-1.48 2.2-3.46 4-5.77 5.25a15.95 15.95 0 0 1-13.93.65 16.49 16.49 0 0 1-5.2-3.5 16.97 16.97 0 0 1-3.45-5.26 16.97 16.97 0 0 1 3.43-18.04 16.48 16.48 0 0 1 5.19-3.5c4.5-1.93 9.61-1.7 13.92.64a16.21 16.21 0 0 1 5.8 5.28z"/>
        <path id="c" d="M359.66 46.4l1.42-2.7v25.57h-1.42zm-2.84 5.4l1.42-2.69v20.16h-1.48zm-2.85 5.48l1.42-2.7v14.7h-1.48zm-3.82-.68l-.8-1.44 9.71-18.72h1.58zm-1.62-3.1l-.83-1.44 8.15-15.62h1.6zm-9.44 1.26l1.42 2.69v11.82h-1.42zm23.36-15.61l-11.22 21.6h-1.58L337 36.44h1.6l11.82 22.75 11.8-22.75h1.64v32.83h-1.42zM336.27 49.3l1.42 2.71V69.3h-1.42zm11.77 11.4h-1.6l-12.62-24.27h1.61zm-14.57-16.83l1.42 2.73v22.66h-1.42zm11.37 16.82h-1.57l-11.24-21.6v30.17h-1.42V36.44h1.6z"/>
        <path id="d" d="M424.2 36.43h-1.51l-12.8 32.84h1.52zm3.02 0h-1.5l-12.8 32.84h1.5zm3.05 0h-1.51l-12.8 32.84h1.52zm5.21 32.8H437l-7.72-19.83-.61 2.12zm3.07.11h1.53l-9.26-23.76-.74 1.96zm3.06 0h1.5l-10.73-27.53-.8 1.83zm-8.3-32.91h-1.52l-12.8 32.84h1.5l12.08-30.91 12.06 30.91h1.52z"/>
        <path id="e" d="M490.64 43.64V42.2h24.6v1.44h-7.37v25.63h-1.42V43.64h-1.43v25.63h-1.42V43.64h-1.42v25.63h-1.42V43.64h-1.42v25.63h-1.43V43.64zm0-2.88v-1.44h24.6v1.44zm0-2.88v-1.44h24.6v1.44z"/>
        <path id="f" d="M267.9 36.34c-9 .02-16.29 7.43-16.27 16.55a16.41 16.41 0 0 0 16.33 16.48c9-.01 16.3-7.41 16.29-16.53 0-4.38-1.73-8.59-4.8-11.68a16.2 16.2 0 0 0-11.55-4.82zm0 34.33c-9.73 0-17.6-7.98-17.6-17.83 0-9.84 7.87-17.83 17.6-17.83 9.72 0 17.6 7.99 17.6 17.83-.01 9.84-7.89 17.82-17.6 17.83z"/>
        <path id="g" d="M267.9 39.13a13.6 13.6 0 0 0-12.56 8.5 13.9 13.9 0 0 0 2.95 15 13.47 13.47 0 0 0 14.82 2.98 13.77 13.77 0 0 0 8.38-12.73c0-3.65-1.42-7.16-3.97-9.75a13.5 13.5 0 0 0-9.62-4.04zm0 28.8a15 15 0 0 1-14.88-15.1 15 15 0 0 1 14.91-15.08 15 15 0 0 1 14.9 15.1c0 4-1.58 7.84-4.38 10.67a14.82 14.82 0 0 1-10.55 4.41z"/>
        <path id="h" d="M267.9 41.87a10.9 10.9 0 0 0-10.07 6.81 11.13 11.13 0 0 0 2.37 12.02 10.8 10.8 0 0 0 11.87 2.39 11.03 11.03 0 0 0 6.72-10.2 11.1 11.1 0 0 0-3.18-7.82 10.82 10.82 0 0 0-7.71-3.24zm0 23.37a12.26 12.26 0 0 1-12.2-12.34c0-6.81 5.45-12.34 12.18-12.34 6.72 0 12.18 5.51 12.2 12.32a12.3 12.3 0 0 1-12.2 12.36z"/>
        <path id="i" d="M267.9 44.56a8.19 8.19 0 0 0-7.57 5.13 8.37 8.37 0 0 0 1.78 9.04 8.11 8.11 0 0 0 8.93 1.78 8.3 8.3 0 0 0 5.05-7.67 8.24 8.24 0 0 0-8.2-8.28zm0 17.89a9.54 9.54 0 0 1-9.49-9.6c0-5.31 4.25-9.61 9.49-9.61 5.23 0 9.48 4.3 9.48 9.6s-4.25 9.6-9.48 9.6z"/>
        <path id="j" d="M267.9 47.3a5.49 5.49 0 0 0-5.09 3.42 5.61 5.61 0 0 0 1.2 6.07 5.44 5.44 0 0 0 5.98 1.2 5.56 5.56 0 0 0 3.38-5.15 5.52 5.52 0 0 0-5.47-5.54zm0 12.41a6.78 6.78 0 0 1-6.27-4.24 6.93 6.93 0 0 1 1.47-7.49 6.72 6.72 0 0 1 7.4-1.48 6.87 6.87 0 0 1 4.18 6.34c0 3.8-3.04 6.87-6.78 6.87z"/>
        <path id="k" d="M467.57 36.34a16.3 16.3 0 0 0-15.07 10.19 16.67 16.67 0 0 0 3.53 18 16.16 16.16 0 0 0 17.78 3.58 16.52 16.52 0 0 0 10.06-15.27 16.43 16.43 0 0 0-16.3-16.5zm0 34.33a17.6 17.6 0 0 1-16.27-11 18 18 0 0 1 3.8-19.43 17.44 17.44 0 0 1 19.2-3.87 17.83 17.83 0 0 1 10.86 16.47c0 9.84-7.87 17.81-17.59 17.83z"/>
        <path id="l" d="M467.57 39.13a13.6 13.6 0 0 0-12.56 8.5 13.9 13.9 0 0 0 2.96 15 13.47 13.47 0 0 0 14.82 2.98 13.77 13.77 0 0 0 8.38-12.72c0-3.66-1.42-7.17-3.97-9.76a13.5 13.5 0 0 0-9.63-4.04zm0 28.8a14.9 14.9 0 0 1-13.77-9.3 15.23 15.23 0 0 1 3.22-16.45 14.76 14.76 0 0 1 16.24-3.28 15.1 15.1 0 0 1 9.2 13.94c0 8.33-6.67 15.08-14.89 15.1z"/>
        <path id="m" d="M467.57 41.87a10.9 10.9 0 0 0-10.06 6.81 11.13 11.13 0 0 0 2.37 12.02 10.8 10.8 0 0 0 11.87 2.39 11.03 11.03 0 0 0 6.71-10.2 11.1 11.1 0 0 0-3.18-7.82 10.82 10.82 0 0 0-7.7-3.24zm0 23.37A12.26 12.26 0 0 1 455.4 52.9c0-6.81 5.45-12.34 12.17-12.34 6.73 0 12.19 5.51 12.2 12.32 0 6.82-5.45 12.35-12.19 12.36z"/>
        <path id="n" d="M467.57 44.56a8.19 8.19 0 0 0-7.57 5.12 8.37 8.37 0 0 0 1.77 9.04 8.11 8.11 0 0 0 8.93 1.8 8.3 8.3 0 0 0 5.05-7.68 8.24 8.24 0 0 0-8.18-8.28zm0 17.89a9.48 9.48 0 0 1-8.77-5.92 9.7 9.7 0 0 1 2.05-10.47 9.4 9.4 0 0 1 10.34-2.1 9.6 9.6 0 0 1 5.85 8.88c0 5.3-4.23 9.6-9.47 9.6z"/>
        <path id="o" d="M388.46 36.34a16.3 16.3 0 0 0-15.06 10.2 16.67 16.67 0 0 0 3.54 18 16.16 16.16 0 0 0 17.78 3.57 16.52 16.52 0 0 0 10.05-15.27c0-9.11-7.3-16.5-16.3-16.5zm0 34.33c-9.72 0-17.6-7.98-17.6-17.83 0-9.84 7.88-17.83 17.6-17.83 9.73 0 17.6 7.99 17.6 17.83 0 9.84-7.88 17.82-17.6 17.83z"/>
        <path id="p" d="M388.46 39.03a13.72 13.72 0 0 0-12.63 8.65 14.03 14.03 0 0 0 3.06 15.13 13.6 13.6 0 0 0 14.97 2.92 13.9 13.9 0 0 0 8.4-12.89A14 14 0 0 0 398.2 43a13.65 13.65 0 0 0-9.74-4.04zm0 29.09c-6.07 0-11.54-3.7-13.87-9.39a15.35 15.35 0 0 1 3.26-16.57 14.88 14.88 0 0 1 16.36-3.3 15.21 15.21 0 0 1 9.27 14.05c0 8.4-6.73 15.2-15.02 15.21z"/>
        <path id="q" d="M388.46 41.58c-4.5 0-8.57 2.74-10.3 6.95a11.38 11.38 0 0 0 2.42 12.3 11.03 11.03 0 0 0 12.14 2.44 11.28 11.28 0 0 0 6.86-10.43 11.2 11.2 0 0 0-11.12-11.26zm0 23.85a12.42 12.42 0 0 1-11.52-7.73 12.7 12.7 0 0 1 2.66-13.74c3.55-3.6 8.9-4.7 13.55-2.75a12.59 12.59 0 0 1 7.68 11.63c0 6.93-5.53 12.55-12.37 12.59z"/>
    </defs><symbol id="icon-facebook" viewBox="0 0 10 19">
    <title>
        facebook
    </title>
    <path d="M9.766.157v2.946H8.014c-.64 0-1.071.134-1.295.402-.223.268-.335.67-.335 1.205v2.11h3.27l-.435 3.303H6.384v8.471H2.97v-8.47H.123V6.82H2.97V4.387c0-1.384.387-2.457 1.161-3.22C4.904.404 5.934.023 7.222.023c1.093 0 1.941.045 2.544.134z" fill-rule="evenodd"/>
</symbol><symbol id="icon-logo" viewBox="0 0 300 36">
    
    <use xlink:href="#a" transform="translate(-216 -35)"/>
    <use xlink:href="#b" transform="translate(-216 -35)"/>
    <use xlink:href="#c" transform="translate(-216 -35)"/>
    <use xlink:href="#d" transform="translate(-216 -35)"/>
    <use xlink:href="#e" transform="translate(-216 -35)"/>
    <use xlink:href="#f" transform="translate(-216 -35)"/>
    <use xlink:href="#g" transform="translate(-216 -35)"/>
    <use xlink:href="#h" transform="translate(-216 -35)"/>
    <use xlink:href="#i" transform="translate(-216 -35)"/>
    <use xlink:href="#j" transform="translate(-216 -35)"/>
    <use xlink:href="#k" transform="translate(-216 -35)"/>
    <use xlink:href="#l" transform="translate(-216 -35)"/>
    <use xlink:href="#m" transform="translate(-216 -35)"/>
    <use xlink:href="#n" transform="translate(-216 -35)"/>
    <use xlink:href="#o" transform="translate(-216 -35)"/>
    <use xlink:href="#p" transform="translate(-216 -35)"/>
    <use xlink:href="#q" transform="translate(-216 -35)"/>
</symbol><symbol id="icon-menu" viewBox="0 0 56 56">
    <path d="M28 0C12.561 0 0 12.561 0 28s12.561 28 28 28 28-12.561 28-28S43.439 0 28 0zm12 41H16a2 2 0 0 1 0-4h24a2 2 0 0 1 0 4zm0-11H16a2 2 0 0 1 0-4h24a2 2 0 0 1 0 4zm0-11H16a2 2 0 0 1 0-4h24a2 2 0 0 1 0 4z"/>
</symbol></svg>