<svg xmlns="http://www.w3.org/2000/svg" xmlns:xlink="http://www.w3.org/1999/xlink" width="17" height="17" viewBox="0 0 17 17"><defs><path id="sllda" d="M1300.39 1481.14c1.26 0 2.44.56 3.31 1.43 0-.41.29-.73.68-.73h.1c.6 0 .73.58.73.76v6.51c-.04.43.45.65.72.38 1.04-1.08 2.3-5.53-.65-8.1a7.07 7.07 0 0 0-8.4-.66 6.33 6.33 0 0 0-2.13 7.6c1.42 3.26 5.46 4.23 7.86 3.26 1.22-.5 1.78 1.15.52 1.69-1.91.81-7.23.73-9.7-3.57a7.85 7.85 0 0 1 2.85-10.64 8.69 8.69 0 0 1 10.6 1.36c2.83 2.95 2.66 8.47-.1 10.62-1.25.97-3.1.02-3.1-1.4v-.46a4.65 4.65 0 0 1-3.3 1.36 4.81 4.81 0 0 1-4.68-4.68c0-2.51 2.2-4.73 4.69-4.73zm3.13 4.56a2.97 2.97 0 0 0-3.08-2.93h-.06c-1.9 0-2.94 1.49-2.94 3.18 0 1.88 1.27 3.08 2.93 3.08a3.07 3.07 0 0 0 3.16-2.96z"/></defs><g><g transform="translate(-1292 -1477)"><use fill="#fff" xlink:href="#sllda"/></g></g></svg>