<svg xmlns="http://www.w3.org/2000/svg" xmlns:xlink="http://www.w3.org/1999/xlink" width="10" height="16" viewBox="0 0 10 16"><defs><path id="lcoja" d="M1265.9 1478.09h-2.02c-2.25 0-3.71 1.49-3.71 3.8v1.77h-2.03a.32.32 0 0 0-.31.31v2.55c0 .17.14.31.31.31h2.03v6.43c0 .18.14.32.31.32h2.64c.17 0 .31-.14.31-.32v-6.43h2.37c.17 0 .31-.14.31-.31v-2.55a.32.32 0 0 0-.32-.32h-2.36v-1.49c0-.71.18-1.08 1.1-1.08h1.36c.18 0 .32-.14.32-.31v-2.37a.32.32 0 0 0-.32-.31z"/></defs><g><g transform="translate(-1257 -1478)"><use fill="#fff" xlink:href="#lcoja"/></g></g></svg>